HIERARCHY
ROOT Hips
{
	OFFSET 0.000000 0.000000 0.000000 
	CHANNELS 6 Xposition Yposition Zposition Zrotation Yrotation Xrotation
	JOINT LeftUpLeg
	{
		OFFSET 1.363060 -1.794630 0.839290 
		CHANNELS 3 Zrotation Yrotation Xrotation
		JOINT LeftLeg
		{
			OFFSET 2.448110 -6.726130 0.000000 
			CHANNELS 3 Zrotation Yrotation Xrotation
			JOINT LeftFoot
			{
				OFFSET 2.562200 -7.039590 0.000000 
				CHANNELS 3 Zrotation Yrotation Xrotation
				JOINT LeftToeBase
				{
					OFFSET 0.157640 -0.433110 2.322550 
					CHANNELS 3 Zrotation Yrotation Xrotation
					End Site
					{
						OFFSET 0.000000 0.000000 0.000000 
					}
				}
			}
		}
	}
	JOINT RightUpLeg
	{
		OFFSET -1.305520 -1.794630 0.839290 
		CHANNELS 3 Zrotation Yrotation Xrotation
		JOINT RightLeg
		{
			OFFSET -2.542530 -6.985550 0.000000 
			CHANNELS 3 Zrotation Yrotation Xrotation
			JOINT RightFoot
			{
				OFFSET -2.568260 -7.056230 0.000000 
				CHANNELS 3 Zrotation Yrotation Xrotation
				JOINT RightToeBase
				{
					OFFSET -0.164730 -0.452590 2.363150 
					CHANNELS 3 Zrotation Yrotation Xrotation
					End Site
					{
						OFFSET 0.000000 0.000000 0.000000 
					}
				}
			}
		}
	}
	JOINT Spine
	{
		OFFSET 0.028270 2.035590 -0.193380 
		CHANNELS 3 Zrotation Yrotation Xrotation
		JOINT Spine1
		{
			OFFSET 0.056720 2.048850 -0.042750 
			CHANNELS 3 Zrotation Yrotation Xrotation
			JOINT Neck1
			{
				OFFSET -0.054170 1.746240 0.172020 
				CHANNELS 3 Zrotation Yrotation Xrotation
				JOINT Head
				{
					OFFSET 0.104070 1.761360 -0.123970 
					CHANNELS 3 Zrotation Yrotation Xrotation
					End Site
					{
						OFFSET 0.000000 0.000000 0.000000 
					}
				}
			}
			JOINT LeftArm
			{
				OFFSET 3.362410 1.200890 -0.311210 
				CHANNELS 3 Zrotation Yrotation Xrotation
				JOINT LeftForeArm
				{
					OFFSET 4.983000 -0.000000 -0.000000 
					CHANNELS 3 Zrotation Yrotation Xrotation
					JOINT LeftHand
					{
						OFFSET 3.483560 -0.000000 -0.000000 
						CHANNELS 3 Zrotation Yrotation Xrotation
						JOINT LeftHandIndex1
						{
							OFFSET 0.715260 -0.000000 -0.000000 
							CHANNELS 3 Zrotation Yrotation Xrotation
							End Site
							{
								OFFSET 0.000000 0.000000 0.000000 
							}
						}
					}
				}
			}
			JOINT RightArm
			{
				OFFSET -3.136600 1.374050 -0.404650 
				CHANNELS 3 Zrotation Yrotation Xrotation
				JOINT RightForeArm
				{
					OFFSET -5.241900 -0.000000 -0.000000 
					CHANNELS 3 Zrotation Yrotation Xrotation
					JOINT RightHand
					{
						OFFSET -3.444170 -0.000000 -0.000000 
						CHANNELS 3 Zrotation Yrotation Xrotation
						JOINT RightHandIndex1
						{
							OFFSET -0.622530 -0.000000 -0.000000 
							CHANNELS 3 Zrotation Yrotation Xrotation
							End Site
							{
								OFFSET 0.000000 0.000000 0.000000 
							}
						}
					}
				}
			}
		}
	}
}
MOTION
Frames: 18
Frame Time: 0.041667
5.327890 17.402718 43.092929 -177.301904 -1.745831 -167.023254 -13.643993 5.464459 -21.667806 -1.589266 9.750605 24.243709 5.765694 -10.453481 7.855558 0.101300 -2.052800 -5.651600 13.239428 15.874545 -18.939524 -3.202993 -17.164631 44.368827 -4.362405 10.043246 12.441476 -1.762700 8.353300 -23.792500 0.092521 4.256394 -4.128387 1.025713 1.696286 -9.619356 7.398380 -10.648960 12.037821 18.781300 -7.787700 5.492900 -76.978325 9.396913 48.144875 16.818023 -23.230931 -4.714547 -0.660889 0.292829 -32.557046 -7.125000 0.000000 0.000000 78.503913 -6.738075 14.678330 -9.354147 18.732404 -2.548527 0.319057 0.341625 29.072885 7.125000 0.000000 0.000000 
5.316376 17.394223 43.069679 -177.310847 -1.704659 -167.067474 -13.735921 5.555229 -21.578852 -1.591025 9.724526 24.208738 5.793764 -10.562760 7.802923 0.094000 -1.977000 -5.442200 13.402237 15.306907 -20.044987 -3.734910 -17.653791 45.917441 -4.116911 9.249140 11.573179 -1.857500 8.562700 -24.436600 0.072262 4.214401 -4.123199 0.999687 1.676913 -9.911774 7.406242 -11.589737 11.841590 18.850200 -8.264000 5.493600 -76.915544 9.854200 47.312980 16.727354 -23.189664 -4.704916 -0.687512 0.300430 -32.856366 -7.125000 0.000000 0.000000 78.792709 -6.914497 14.764437 -9.407813 18.826681 -2.597806 0.255287 0.086728 29.163635 7.125000 0.000000 0.000000 
5.300056 17.393664 43.041063 -177.383603 -1.673345 -167.105451 -13.899593 5.657444 -21.416340 -1.620707 9.662116 24.054715 5.814922 -10.654204 7.776476 0.086200 -1.893700 -5.211900 13.450921 14.714376 -21.053037 -4.121406 -18.003299 47.055771 -3.970471 8.821051 11.183351 -1.736700 8.294700 -23.612700 0.060344 4.110465 -4.072347 1.005152 1.647890 -9.916153 7.459712 -12.507794 11.560185 18.929300 -8.645600 5.580600 -76.880818 9.860535 46.446129 16.649216 -23.121753 -4.691029 -0.753259 0.287697 -33.629564 -7.125000 0.000000 0.000000 78.988009 -6.642055 14.966359 -9.531184 18.947248 -2.634636 0.225500 0.108722 29.036659 7.125000 0.000000 0.000000 
5.288431 17.395005 43.008424 -177.445311 -1.677567 -167.149143 -14.016218 5.704291 -21.244841 -1.645822 9.605582 23.918206 5.835801 -10.739622 7.735475 0.082500 -1.853000 -5.099600 13.523704 14.148409 -22.126307 -4.464410 -18.313062 48.059067 -3.863581 8.536097 10.768507 -1.721800 8.260900 -23.509300 0.059621 3.985588 -4.065620 1.025720 1.587480 -10.284553 7.424387 -13.298675 11.203616 18.926400 -8.964600 5.292100 -76.921398 10.294072 45.428820 16.468131 -22.974602 -4.625279 -0.784532 0.258393 -33.902522 -7.125000 0.000000 0.000000 79.226837 -6.885562 15.269085 -9.676802 19.123653 -2.669139 0.223405 0.226962 28.670326 7.125000 0.000000 0.000000 
5.275577 17.393329 42.976566 -177.495575 -1.682591 -167.182545 -14.121345 5.749197 -21.065777 -1.676937 9.538984 23.753491 5.852521 -10.808934 7.728326 0.077100 -1.791100 -4.928800 13.609614 13.577828 -23.116899 -4.764817 -18.573342 48.918864 -3.738076 8.161778 10.430034 -1.704200 8.220700 -23.386500 0.060479 3.857996 -4.043822 1.047965 1.534678 -10.514960 7.417452 -14.156385 10.885355 18.939800 -9.314500 5.160200 -76.948105 10.562730 44.418435 16.302423 -22.832925 -4.569985 -0.816979 0.241229 -34.228575 -7.125000 0.000000 0.000000 79.427932 -6.947608 15.558254 -9.805356 19.273685 -2.707500 0.206188 0.272411 28.416475 7.125000 0.000000 0.000000 
5.263057 17.392099 42.942138 -177.533889 -1.700174 -167.210492 -14.204681 5.771281 -20.879964 -1.703767 9.479390 23.604762 5.865061 -10.860612 7.700263 0.072800 -1.740700 -4.789500 13.708467 13.012655 -24.071605 -4.995397 -18.774612 49.575492 -3.641099 7.876235 10.172930 -1.693900 8.197000 -23.314100 0.067120 3.718473 -4.019768 1.076152 1.476503 -10.730895 7.409188 -15.017139 10.546021 18.942300 -9.649100 5.010500 -76.988358 10.791749 43.376220 16.105304 -22.654154 -4.499452 -0.844882 0.224857 -34.492102 -7.125000 0.000000 0.000000 79.608526 -6.999127 15.875226 -9.940060 19.429466 -2.746888 0.192200 0.335943 28.132401 7.125000 0.000000 0.000000 
5.250985 17.390758 42.905250 -177.549990 -1.736320 -167.229728 -14.255732 5.765666 -20.694494 -1.724249 9.428913 23.481498 5.874193 -10.896533 7.652160 0.069400 -1.700100 -4.677600 13.834013 12.454950 -25.008609 -5.172306 -18.933448 50.077743 -3.569115 7.669084 9.939565 -1.695800 8.201400 -23.327600 0.079061 3.572717 -3.998902 1.116155 1.416001 -10.942397 7.425603 -15.856932 10.221258 18.979400 -9.981800 4.879400 -77.045573 11.016685 42.315665 15.877480 -22.440836 -4.415270 -0.866662 0.212555 -34.670410 -7.125000 0.000000 0.000000 79.765987 -7.081642 16.226073 -10.077116 19.593744 -2.789692 0.177656 0.389761 27.831049 7.125000 0.000000 0.000000 
5.239136 17.388969 42.866016 -177.540818 -1.788835 -167.238170 -14.272930 5.734484 -20.506463 -1.739912 9.384268 23.374884 5.877665 -10.906843 7.586874 0.067800 -1.679800 -4.621400 13.985802 11.903114 -25.916808 -5.282722 -19.042781 50.391108 -3.522692 7.536626 9.751094 -1.699000 8.208900 -23.350300 0.094015 3.428439 -3.976546 1.157186 1.356519 -11.117021 7.472445 -16.695359 9.903801 19.047100 -10.315800 4.785400 -77.101276 11.193515 41.271082 15.625092 -22.195977 -4.319912 -0.887361 0.203368 -34.796157 -7.125000 0.000000 0.000000 79.903783 -7.141201 16.574251 -10.208622 19.752252 -2.832769 0.161272 0.428506 27.548836 7.125000 0.000000 0.000000 
5.227735 17.386622 42.824433 -177.511113 -1.846954 -167.237381 -14.260860 5.677688 -20.318449 -1.750047 9.346950 23.288986 5.873044 -10.884291 7.498915 0.067700 -1.678200 -4.617100 14.160066 11.367540 -26.798972 -5.330303 -19.107046 50.526603 -3.496227 7.458465 9.602750 -1.698000 8.206400 -23.342700 0.111498 3.290527 -3.959029 1.204765 1.299887 -11.290836 7.550364 -17.504659 9.605111 19.154400 -10.648200 4.717900 -77.165331 11.369823 40.252995 15.351058 -21.925051 -4.215544 -0.908251 0.197760 -34.863812 -7.125000 0.000000 0.000000 80.023751 -7.239323 16.933669 -10.341607 19.917975 -2.878820 0.144824 0.451623 27.275967 7.125000 0.000000 0.000000 
5.216668 17.383827 42.779498 -177.465561 -1.904542 -167.231138 -14.229241 5.605286 -20.124956 -1.754583 9.317371 23.223777 5.860209 -10.830434 7.381755 0.069400 -1.700100 -4.677600 14.352476 10.845021 -27.645903 -5.319613 -19.128860 50.494613 -3.484203 7.413067 9.475856 -1.693400 8.195800 -23.310500 0.128746 3.165126 -3.943032 1.244106 1.247448 -11.453394 7.646424 -18.302969 9.311775 19.272400 -10.977400 4.664300 -77.217672 11.531907 39.273545 15.055267 -21.627850 -4.102053 -0.933109 0.192262 -34.864139 -7.125000 0.000000 0.000000 80.142818 -7.361762 17.283498 -10.477972 20.090065 -2.927433 0.131007 0.462679 27.022780 7.125000 0.000000 0.000000 
5.205938 17.380921 42.732662 -177.400740 -1.956492 -167.219129 -14.172836 5.513558 -19.929503 -1.755111 9.292880 23.172804 5.836217 -10.734983 7.250041 0.072700 -1.739100 -4.785300 14.566077 10.347232 -28.464191 -5.255294 -19.112350 50.305643 -3.475267 7.359869 9.369696 -1.688900 8.185600 -23.279200 0.149867 3.043095 -3.929632 1.287793 1.195292 -11.624743 7.744564 -19.083091 9.007945 19.391900 -11.291400 4.585900 -77.281256 11.704977 38.314954 14.745368 -21.314345 -3.983792 -0.960819 0.186989 -34.773595 -7.125000 0.000000 0.000000 80.239911 -7.515581 17.629785 -10.609225 20.258473 -2.974817 0.122586 0.470014 26.796216 7.125000 0.000000 0.000000 
5.195542 17.377791 42.683590 -177.319659 -1.994005 -167.201394 -14.098712 5.416291 -19.730508 -1.751953 9.272277 23.131719 5.800222 -10.594829 7.095931 0.079000 -1.813300 -4.990000 14.797819 9.883590 -29.246049 -5.141744 -19.060259 49.970710 -3.461709 7.271187 9.280747 -1.685400 8.177600 -23.254800 0.173111 2.929145 -3.913180 1.326999 1.146279 -11.775429 7.834500 -19.868136 8.686359 19.481300 -11.589500 4.490200 -77.337057 11.847733 37.382482 14.424339 -20.986392 -3.862401 -0.990425 0.183927 -34.592031 -7.125000 0.000000 0.000000 80.324016 -7.652525 17.953549 -10.742300 20.425829 -3.022496 0.121481 0.472908 26.586354 7.125000 0.000000 0.000000 
5.185594 17.374661 42.633066 -177.229169 -2.020301 -167.180324 -14.010886 5.306409 -19.524239 -1.747210 9.253474 23.094855 5.751739 -10.412602 6.929551 0.087700 -1.909700 -5.256100 15.040071 9.456219 -29.989893 -4.983543 -18.974442 49.500253 -3.437869 7.128642 9.214378 -1.680800 8.166900 -23.222200 0.200791 2.813770 -3.894993 1.375988 1.097839 -11.915147 7.916176 -20.640141 8.353119 19.552400 -11.867300 4.371300 -77.403384 11.982588 36.462982 14.098206 -20.651916 -3.741422 -1.019998 0.184624 -34.313099 -7.125000 0.000000 0.000000 80.382127 -7.775508 18.239408 -10.866828 20.579975 -3.066974 0.128482 0.466171 26.392763 7.125000 0.000000 0.000000 
5.176092 17.371867 42.580864 -177.128233 -2.031896 -167.159865 -13.909108 5.186367 -19.304334 -1.742524 9.233097 23.053734 5.691704 -10.192020 6.759082 0.098500 -2.023600 -5.571000 15.291260 9.075894 -30.692160 -4.784795 -18.857768 48.906112 -3.403322 6.932919 9.172906 -1.673700 8.150400 -23.171900 0.230772 2.703699 -3.871349 1.424338 1.052456 -12.026927 7.985623 -21.420047 8.001285 19.587400 -12.127600 4.233300 -77.462263 12.079921 35.576964 13.770086 -20.313175 -3.622089 -1.049170 0.190193 -33.970438 -7.125000 0.000000 0.000000 80.424818 -7.847498 18.453853 -10.983871 20.717789 -3.107999 0.143534 0.456598 26.198931 7.125000 0.000000 0.000000 
5.167150 17.369519 42.527657 -177.025989 -2.028264 -167.138393 -13.803556 5.063431 -19.076456 -1.740008 9.208301 23.001243 5.624107 -9.950117 6.597579 0.110200 -2.140500 -5.894200 15.537856 8.739791 -31.356552 -4.550322 -18.711556 48.199246 -3.359643 6.691577 9.153538 -1.666700 8.134300 -23.122600 0.261588 2.602305 -3.847979 1.485168 1.013502 -12.127526 8.066710 -22.171230 7.653527 19.631400 -12.372400 4.101400 -77.522218 12.174026 34.743961 13.452183 -19.984137 -3.508790 -1.076818 0.199661 -33.585734 -7.125000 0.000000 0.000000 80.448929 -7.911924 18.601904 -11.092529 20.843072 -3.146441 0.164666 0.444000 26.004579 7.125000 0.000000 0.000000 
5.158543 17.367619 42.472326 -176.934252 -2.017552 -167.119336 -13.703009 4.929947 -18.827735 -1.741604 9.177349 22.931347 5.550162 -9.693720 6.445131 0.122400 -2.255000 -6.211000 15.767292 8.440052 -31.974841 -4.284462 -18.536097 47.391193 -3.312720 6.427189 9.163582 -1.649400 8.094000 -23.000000 0.292337 2.505090 -3.822506 1.554852 0.979093 -12.206169 8.157733 -22.891730 7.317816 19.679800 -12.603900 3.982000 -77.577979 12.258984 33.969048 13.149972 -19.671245 -3.403548 -1.103722 0.211041 -33.183701 -7.125000 0.000000 0.000000 80.457467 -7.946670 18.677809 -11.197602 20.960249 -3.184354 0.190070 0.430347 25.737360 7.125000 0.000000 0.000000 
5.150383 17.366054 42.415430 -176.851996 -1.997955 -167.102257 -13.608021 4.789410 -18.561662 -1.747909 9.138808 22.841276 5.469693 -9.422883 6.307233 0.134700 -2.365300 -6.516200 15.977918 8.174083 -32.554112 -3.991109 -18.332994 46.492488 -3.266358 6.154709 9.209655 -1.624200 8.035000 -22.820600 0.323208 2.413563 -3.798589 1.637670 0.950327 -12.278521 8.257144 -23.569406 7.005080 19.732100 -12.822400 3.885200 -77.635355 12.348627 33.272134 12.877423 -19.389747 -3.310727 -1.129855 0.222090 -32.787891 -7.125000 0.000000 0.000000 80.441725 -7.971684 18.710815 -11.305273 21.079136 -3.224335 0.216500 0.421613 25.365701 7.125000 0.000000 0.000000 
5.142894 17.364713 42.355739 -176.781496 -1.968198 -167.089798 -13.523926 4.653333 -18.277347 -1.758033 9.093009 22.731709 5.386112 -9.148262 6.176537 0.147600 -2.476000 -6.823200 16.166021 7.941620 -33.087278 -3.674535 -18.103414 45.514367 -3.224852 5.890233 9.291817 -1.592000 7.958800 -22.589200 0.351676 2.331907 -3.777247 1.722695 0.926825 -12.353363 8.364899 -24.197694 6.716158 19.791200 -13.028300 3.800800 -77.680762 12.461936 32.673193 12.634268 -19.141847 -3.229386 -1.157835 0.228011 -32.416841 -7.125000 0.000000 0.000000 80.417382 -8.011663 18.716389 -11.422996 21.211254 -3.269729 0.241666 0.416865 24.863548 7.125000 0.000000 0.000000 
